<svg xmlns="http://www.w3.org/2000/svg" viewBox="0 0 512 512" width="512" height="512">
  <defs>
    <linearGradient id="bgGrad" x1="0%" y1="0%" x2="100%" y2="100%">
      <stop offset="0%" stop-color="#0B0F1A"/>
      <stop offset="100%" stop-color="#1A2236"/>
    </linearGradient>
    <radialGradient id="glow" cx="50%" cy="35%" r="55%">
      <stop offset="0%" stop-color="#3B82F6" stop-opacity="0.18"/>
      <stop offset="100%" stop-color="#06B6D4" stop-opacity="0"/>
    </radialGradient>
    <linearGradient id="tileGrad" x1="0%" y1="0%" x2="100%" y2="100%">
      <stop offset="0%" stop-color="#0E7490"/>
      <stop offset="50%" stop-color="#06B6D4"/>
      <stop offset="100%" stop-color="#3B82F6"/>
    </linearGradient>
    <linearGradient id="sheen" x1="0%" y1="0%" x2="0%" y2="100%">
      <stop offset="0%" stop-color="#FFFFFF" stop-opacity="0.22"/>
      <stop offset="55%" stop-color="#FFFFFF" stop-opacity="0"/>
    </linearGradient>
    <linearGradient id="shieldGrad" x1="0%" y1="0%" x2="100%" y2="100%">
      <stop offset="0%" stop-color="#22D3EE"/>
      <stop offset="100%" stop-color="#3B82F6"/>
    </linearGradient>
  </defs>

  <rect width="512" height="512" rx="64" fill="url(#bgGrad)"/>
  <rect width="512" height="512" rx="64" fill="url(#glow)"/>

  <circle cx="256" cy="180" r="134" fill="none" stroke="url(#shieldGrad)" stroke-width="2.5" opacity="0.25"/>
  <circle cx="256" cy="180" r="124" fill="none" stroke="url(#shieldGrad)" stroke-width="2.5" opacity="0.35"/>
  <path d="M 256 42 L 386 90 L 386 220 Q 386 310 256 336 Q 126 310 126 220 L 126 90 Z" fill="none" stroke="url(#shieldGrad)" stroke-width="2" opacity="0.15"/>

  <g transform="translate(156 80)">
    <rect width="200" height="200" rx="48" fill="url(#tileGrad)"/>
    <rect width="200" height="200" rx="48" fill="url(#sheen)"/>
    <g transform="translate(100 100) scale(0.82)" stroke="#FFFFFF" stroke-width="10" stroke-linecap="round" fill="none">
      <g><line x1="0" y1="0" x2="0" y2="-80"/><line x1="0" y1="-32" x2="-16" y2="-48"/><line x1="0" y1="-32" x2="16" y2="-48"/><line x1="0" y1="-58" x2="-13" y2="-71"/><line x1="0" y1="-58" x2="13" y2="-71"/></g>
      <g transform="rotate(60)"><line x1="0" y1="0" x2="0" y2="-80"/><line x1="0" y1="-32" x2="-16" y2="-48"/><line x1="0" y1="-32" x2="16" y2="-48"/><line x1="0" y1="-58" x2="-13" y2="-71"/><line x1="0" y1="-58" x2="13" y2="-71"/></g>
      <g transform="rotate(120)"><line x1="0" y1="0" x2="0" y2="-80"/><line x1="0" y1="-32" x2="-16" y2="-48"/><line x1="0" y1="-32" x2="16" y2="-48"/><line x1="0" y1="-58" x2="-13" y2="-71"/><line x1="0" y1="-58" x2="13" y2="-71"/></g>
      <g transform="rotate(180)"><line x1="0" y1="0" x2="0" y2="-80"/><line x1="0" y1="-32" x2="-16" y2="-48"/><line x1="0" y1="-32" x2="16" y2="-48"/><line x1="0" y1="-58" x2="-13" y2="-71"/><line x1="0" y1="-58" x2="13" y2="-71"/></g>
      <g transform="rotate(240)"><line x1="0" y1="0" x2="0" y2="-80"/><line x1="0" y1="-32" x2="-16" y2="-48"/><line x1="0" y1="-32" x2="16" y2="-48"/><line x1="0" y1="-58" x2="-13" y2="-71"/><line x1="0" y1="-58" x2="13" y2="-71"/></g>
      <g transform="rotate(300)"><line x1="0" y1="0" x2="0" y2="-80"/><line x1="0" y1="-32" x2="-16" y2="-48"/><line x1="0" y1="-32" x2="16" y2="-48"/><line x1="0" y1="-58" x2="-13" y2="-71"/><line x1="0" y1="-58" x2="13" y2="-71"/></g>
    </g>
    <circle cx="100" cy="100" r="5" fill="#FFFFFF"/>
  </g>

  <circle cx="126" cy="50" r="3.5" fill="#3B82F6" opacity="0.4"/>
  <circle cx="386" cy="50" r="3" fill="#22D3EE" opacity="0.3"/>
  <circle cx="110" cy="300" r="2.5" fill="#22D3EE" opacity="0.3"/>
  <circle cx="402" cy="300" r="3" fill="#3B82F6" opacity="0.4"/>
  <circle cx="256" cy="36" r="2" fill="#06B6D4" opacity="0.25"/>

  <text x="256" y="345" text-anchor="middle" font-family="Inter, sans-serif" font-weight="700" font-size="44" fill="#F1F5F9">Enterprise</text>
  <rect x="166" y="365" width="180" height="3" rx="1.5" fill="url(#shieldGrad)"/>
  <text x="256" y="415" text-anchor="middle" font-family="Inter, sans-serif" font-weight="500" font-size="22" fill="#94A3B8">Unlimited team</text>
  <text x="256" y="445" text-anchor="middle" font-family="Inter, sans-serif" font-weight="400" font-size="18" fill="#64748B">Dedicated support</text>
</svg>
