<svg height="512" viewBox="0 0 512 512" width="512" xmlns="http://www.w3.org/2000/svg" xmlns:xlink="http://www.w3.org/1999/xlink"><linearGradient id="a" x1="0%" x2="100%" y1="0%" y2="100%"><stop offset="0" stop-color="#0b0f1a"/><stop offset="1" stop-color="#1a2236"/></linearGradient><radialGradient id="b" cx="50%" cy="35%" r="55%"><stop offset="0" stop-color="#06b6d4" stop-opacity=".12"/><stop offset="1" stop-color="#06b6d4" stop-opacity="0"/></radialGradient><linearGradient id="c" x1="0%" x2="100%" y1="0%" y2="100%"><stop offset="0" stop-color="#22d3ee"/><stop offset="1" stop-color="#06b6d4"/></linearGradient><linearGradient id="d" x1="0%" x2="0%" y1="0%" y2="100%"><stop offset="0" stop-color="#fff" stop-opacity=".22"/><stop offset=".55" stop-color="#fff" stop-opacity="0"/></linearGradient><rect fill="url(#a)" height="512" rx="64" width="512"/><rect fill="url(#b)" height="512" rx="64" width="512"/><g transform="translate(156 80)"><rect fill="url(#c)" height="200" rx="48" width="200"/><rect fill="url(#d)" height="200" rx="48" width="200"/><g fill="none" stroke="#fff" stroke-linecap="round" stroke-width="10" transform="matrix(.82 0 0 .82 100 100)"><path d="m0 0v-80"/><path d="m0-32-16-16"/><path d="m0-32 16-16"/><path d="m0-58-13-13"/><path d="m0-58 13-13"/><g transform="matrix(.5 .8660254 -.8660254 .5 0 0)"><path d="m0 0v-80"/><path d="m0-32-16-16"/><path d="m0-32 16-16"/><path d="m0-58-13-13"/><path d="m0-58 13-13"/></g><g transform="matrix(-.5 .8660254 -.8660254 -.5 0 0)"><path d="m0 0v-80"/><path d="m0-32-16-16"/><path d="m0-32 16-16"/><path d="m0-58-13-13"/><path d="m0-58 13-13"/></g><g transform="scale(-1)"><path d="m0 0v-80"/><path d="m0-32-16-16"/><path d="m0-32 16-16"/><path d="m0-58-13-13"/><path d="m0-58 13-13"/></g><g transform="matrix(-.5 -.8660254 .8660254 -.5 0 0)"><path d="m0 0v-80"/><path d="m0-32-16-16"/><path d="m0-32 16-16"/><path d="m0-58-13-13"/><path d="m0-58 13-13"/></g><g transform="matrix(.5 -.8660254 .8660254 .5 0 0)"><path d="m0 0v-80"/><path d="m0-32-16-16"/><path d="m0-32 16-16"/><path d="m0-58-13-13"/><path d="m0-58 13-13"/></g></g><circle cx="100" cy="100" fill="#fff" r="5"/></g><text fill="#f1f5f9" font-family="Inter, sans-serif" font-size="44" font-weight="700" text-anchor="middle" x="256" y="345">Starter</text><rect fill="#06b6d4" height="3" rx="1.5" width="120" x="196" y="365"/><g font-family="Inter, sans-serif" text-anchor="middle"><text fill="#94a3b8" font-size="22" font-weight="500" x="256" y="415">Solo contractors</text><text fill="#64748b" font-size="18" font-weight="400" x="256" y="445">Unlimited estimates</text></g></svg>