<svg xmlns="http://www.w3.org/2000/svg" viewBox="0 0 256 256" width="256" height="256">
  <defs>
    <linearGradient id="bgGrad" x1="0%" y1="0%" x2="100%" y2="100%">
      <stop offset="0%" stop-color="#22D3EE"/>
      <stop offset="55%" stop-color="#06B6D4"/>
      <stop offset="100%" stop-color="#3B82F6"/>
    </linearGradient>
    <linearGradient id="sheen" x1="0%" y1="0%" x2="0%" y2="100%">
      <stop offset="0%" stop-color="#FFFFFF" stop-opacity="0.22"/>
      <stop offset="55%" stop-color="#FFFFFF" stop-opacity="0"/>
    </linearGradient>
  </defs>

  <!-- Rounded square background -->
  <rect x="8" y="8" width="240" height="240" rx="56" ry="56" fill="url(#bgGrad)"/>
  <rect x="8" y="8" width="240" height="240" rx="56" ry="56" fill="url(#sheen)"/>

  <!-- Snowflake: 6-fold symmetric, white -->
  <g transform="translate(128 128)" stroke="#FFFFFF" stroke-width="10" stroke-linecap="round" fill="none">
    <g>
      <line x1="0" y1="0" x2="0" y2="-80"/>
      <line x1="0" y1="-32" x2="-16" y2="-48"/>
      <line x1="0" y1="-32" x2="16" y2="-48"/>
      <line x1="0" y1="-58" x2="-13" y2="-71"/>
      <line x1="0" y1="-58" x2="13" y2="-71"/>
    </g>
    <g transform="rotate(60)">
      <line x1="0" y1="0" x2="0" y2="-80"/>
      <line x1="0" y1="-32" x2="-16" y2="-48"/>
      <line x1="0" y1="-32" x2="16" y2="-48"/>
      <line x1="0" y1="-58" x2="-13" y2="-71"/>
      <line x1="0" y1="-58" x2="13" y2="-71"/>
    </g>
    <g transform="rotate(120)">
      <line x1="0" y1="0" x2="0" y2="-80"/>
      <line x1="0" y1="-32" x2="-16" y2="-48"/>
      <line x1="0" y1="-32" x2="16" y2="-48"/>
      <line x1="0" y1="-58" x2="-13" y2="-71"/>
      <line x1="0" y1="-58" x2="13" y2="-71"/>
    </g>
    <g transform="rotate(180)">
      <line x1="0" y1="0" x2="0" y2="-80"/>
      <line x1="0" y1="-32" x2="-16" y2="-48"/>
      <line x1="0" y1="-32" x2="16" y2="-48"/>
      <line x1="0" y1="-58" x2="-13" y2="-71"/>
      <line x1="0" y1="-58" x2="13" y2="-71"/>
    </g>
    <g transform="rotate(240)">
      <line x1="0" y1="0" x2="0" y2="-80"/>
      <line x1="0" y1="-32" x2="-16" y2="-48"/>
      <line x1="0" y1="-32" x2="16" y2="-48"/>
      <line x1="0" y1="-58" x2="-13" y2="-71"/>
      <line x1="0" y1="-58" x2="13" y2="-71"/>
    </g>
    <g transform="rotate(300)">
      <line x1="0" y1="0" x2="0" y2="-80"/>
      <line x1="0" y1="-32" x2="-16" y2="-48"/>
      <line x1="0" y1="-32" x2="16" y2="-48"/>
      <line x1="0" y1="-58" x2="-13" y2="-71"/>
      <line x1="0" y1="-58" x2="13" y2="-71"/>
    </g>
  </g>
  <circle cx="128" cy="128" r="6" fill="#FFFFFF"/>
</svg>
