<svg xmlns="http://www.w3.org/2000/svg" viewBox="0 0 720 460" width="720" height="460">
  <defs>
    <linearGradient id="bgGradS" x1="0%" y1="0%" x2="100%" y2="100%">
      <stop offset="0%" stop-color="#22D3EE"/>
      <stop offset="55%" stop-color="#06B6D4"/>
      <stop offset="100%" stop-color="#3B82F6"/>
    </linearGradient>
    <linearGradient id="sheenS" x1="0%" y1="0%" x2="0%" y2="100%">
      <stop offset="0%" stop-color="#FFFFFF" stop-opacity="0.22"/>
      <stop offset="55%" stop-color="#FFFFFF" stop-opacity="0"/>
    </linearGradient>
  </defs>

  <g transform="translate(240 8)">
    <rect x="0" y="0" width="240" height="240" rx="56" ry="56" fill="url(#bgGradS)"/>
    <rect x="0" y="0" width="240" height="240" rx="56" ry="56" fill="url(#sheenS)"/>
    <g transform="translate(120 120)" stroke="#FFFFFF" stroke-width="10" stroke-linecap="round" fill="none">
      <g><line x1="0" y1="0" x2="0" y2="-80"/><line x1="0" y1="-32" x2="-16" y2="-48"/><line x1="0" y1="-32" x2="16" y2="-48"/><line x1="0" y1="-58" x2="-13" y2="-71"/><line x1="0" y1="-58" x2="13" y2="-71"/></g>
      <g transform="rotate(60)"><line x1="0" y1="0" x2="0" y2="-80"/><line x1="0" y1="-32" x2="-16" y2="-48"/><line x1="0" y1="-32" x2="16" y2="-48"/><line x1="0" y1="-58" x2="-13" y2="-71"/><line x1="0" y1="-58" x2="13" y2="-71"/></g>
      <g transform="rotate(120)"><line x1="0" y1="0" x2="0" y2="-80"/><line x1="0" y1="-32" x2="-16" y2="-48"/><line x1="0" y1="-32" x2="16" y2="-48"/><line x1="0" y1="-58" x2="-13" y2="-71"/><line x1="0" y1="-58" x2="13" y2="-71"/></g>
      <g transform="rotate(180)"><line x1="0" y1="0" x2="0" y2="-80"/><line x1="0" y1="-32" x2="-16" y2="-48"/><line x1="0" y1="-32" x2="16" y2="-48"/><line x1="0" y1="-58" x2="-13" y2="-71"/><line x1="0" y1="-58" x2="13" y2="-71"/></g>
      <g transform="rotate(240)"><line x1="0" y1="0" x2="0" y2="-80"/><line x1="0" y1="-32" x2="-16" y2="-48"/><line x1="0" y1="-32" x2="16" y2="-48"/><line x1="0" y1="-58" x2="-13" y2="-71"/><line x1="0" y1="-58" x2="13" y2="-71"/></g>
      <g transform="rotate(300)"><line x1="0" y1="0" x2="0" y2="-80"/><line x1="0" y1="-32" x2="-16" y2="-48"/><line x1="0" y1="-32" x2="16" y2="-48"/><line x1="0" y1="-58" x2="-13" y2="-71"/><line x1="0" y1="-58" x2="13" y2="-71"/></g>
    </g>
    <circle cx="120" cy="120" r="6" fill="#FFFFFF"/>
  </g>

  <text x="360" y="400" text-anchor="middle" font-family="Inter, sans-serif" font-weight="800" font-size="110" letter-spacing="-5" fill="#0B0F1A">coolbid</text>
</svg>
