<svg xmlns="http://www.w3.org/2000/svg" viewBox="0 0 256 256" width="256" height="256">
  <rect x="8" y="8" width="240" height="240" rx="56" ry="56" fill="#F1F5F9"/>
  <g transform="translate(128 128)" stroke="#0B0F1A" stroke-width="9" stroke-linecap="round" fill="none">
    <g><line x1="0" y1="0" x2="0" y2="-76"/><line x1="0" y1="-30" x2="-14" y2="-44"/><line x1="0" y1="-30" x2="14" y2="-44"/><line x1="0" y1="-56" x2="-12" y2="-68"/><line x1="0" y1="-56" x2="12" y2="-68"/></g>
    <g transform="rotate(60)"><line x1="0" y1="0" x2="0" y2="-76"/><line x1="0" y1="-30" x2="-14" y2="-44"/><line x1="0" y1="-30" x2="14" y2="-44"/><line x1="0" y1="-56" x2="-12" y2="-68"/><line x1="0" y1="-56" x2="12" y2="-68"/></g>
    <g transform="rotate(120)"><line x1="0" y1="0" x2="0" y2="-76"/><line x1="0" y1="-30" x2="-14" y2="-44"/><line x1="0" y1="-30" x2="14" y2="-44"/><line x1="0" y1="-56" x2="-12" y2="-68"/><line x1="0" y1="-56" x2="12" y2="-68"/></g>
    <g transform="rotate(180)"><line x1="0" y1="0" x2="0" y2="-76"/><line x1="0" y1="-30" x2="-14" y2="-44"/><line x1="0" y1="-30" x2="14" y2="-44"/><line x1="0" y1="-56" x2="-12" y2="-68"/><line x1="0" y1="-56" x2="12" y2="-68"/></g>
    <g transform="rotate(240)"><line x1="0" y1="0" x2="0" y2="-76"/><line x1="0" y1="-30" x2="-14" y2="-44"/><line x1="0" y1="-30" x2="14" y2="-44"/><line x1="0" y1="-56" x2="-12" y2="-68"/><line x1="0" y1="-56" x2="12" y2="-68"/></g>
    <g transform="rotate(300)"><line x1="0" y1="0" x2="0" y2="-76"/><line x1="0" y1="-30" x2="-14" y2="-44"/><line x1="0" y1="-30" x2="14" y2="-44"/><line x1="0" y1="-56" x2="-12" y2="-68"/><line x1="0" y1="-56" x2="12" y2="-68"/></g>
  </g>
  <circle cx="128" cy="128" r="6" fill="#0B0F1A"/>
</svg>
